<svg width="20" height="20" viewBox="0 0 20 20" fill="none" xmlns="http://www.w3.org/2000/svg">
<path d="M15 5.00009C14.8437 4.84387 14.6318 4.7561 14.4108 4.7561C14.1899 4.7561 13.9779 4.84387 13.8217 5.00009L10 8.82176L6.17833 5.00009C6.02206 4.84387 5.81014 4.7561 5.58917 4.7561C5.3682 4.7561 5.15627 4.84387 5 5.00009C4.84377 5.15637 4.75601 5.36829 4.75601 5.58926C4.75601 5.81023 4.84377 6.02215 5 6.17843L8.82167 10.0001L5 13.8218C4.84377 13.978 4.75601 14.19 4.75601 14.4109C4.75601 14.6319 4.84377 14.8438 5 15.0001C5.15627 15.1563 5.3682 15.2441 5.58917 15.2441C5.81014 15.2441 6.02206 15.1563 6.17833 15.0001L10 11.1784L13.8217 15.0001C13.9779 15.1563 14.1899 15.2441 14.4108 15.2441C14.6318 15.2441 14.8437 15.1563 15 15.0001C15.1562 14.8438 15.244 14.6319 15.244 14.4109C15.244 14.19 15.1562 13.978 15 13.8218L11.1783 10.0001L15 6.17843C15.1562 6.02215 15.244 5.81023 15.244 5.58926C15.244 5.36829 15.1562 5.15637 15 5.00009Z" fill="#DCDCDC"/>
</svg>
