<svg width="16" height="16" viewBox="0 0 16 16" fill="none" xmlns="http://www.w3.org/2000/svg">
<path d="M4.66667 4.00002H15.3333C15.5101 4.00002 15.6797 3.92978 15.8047 3.80476C15.9298 3.67973 16 3.51016 16 3.33335C16 3.15654 15.9298 2.98697 15.8047 2.86195C15.6797 2.73693 15.5101 2.66669 15.3333 2.66669H4.66667C4.48986 2.66669 4.32029 2.73693 4.19526 2.86195C4.07024 2.98697 4 3.15654 4 3.33335C4 3.51016 4.07024 3.67973 4.19526 3.80476C4.32029 3.92978 4.48986 4.00002 4.66667 4.00002Z" fill="#007AFF"/>
<path d="M15.3333 7.33331H4.66667C4.48986 7.33331 4.32029 7.40355 4.19526 7.52858C4.07024 7.6536 4 7.82317 4 7.99998C4 8.17679 4.07024 8.34636 4.19526 8.47138C4.32029 8.59641 4.48986 8.66665 4.66667 8.66665H15.3333C15.5101 8.66665 15.6797 8.59641 15.8047 8.47138C15.9298 8.34636 16 8.17679 16 7.99998C16 7.82317 15.9298 7.6536 15.8047 7.52858C15.6797 7.40355 15.5101 7.33331 15.3333 7.33331Z" fill="#007AFF"/>
<path d="M15.3333 12H4.66667C4.48986 12 4.32029 12.0702 4.19526 12.1953C4.07024 12.3203 4 12.4899 4 12.6667C4 12.8435 4.07024 13.013 4.19526 13.1381C4.32029 13.2631 4.48986 13.3333 4.66667 13.3333H15.3333C15.5101 13.3333 15.6797 13.2631 15.8047 13.1381C15.9298 13.013 16 12.8435 16 12.6667C16 12.4899 15.9298 12.3203 15.8047 12.1953C15.6797 12.0702 15.5101 12 15.3333 12Z" fill="#007AFF"/>
<path d="M1.33333 4.66667C2.06971 4.66667 2.66667 4.06971 2.66667 3.33333C2.66667 2.59695 2.06971 2 1.33333 2C0.596954 2 0 2.59695 0 3.33333C0 4.06971 0.596954 4.66667 1.33333 4.66667Z" fill="#007AFF"/>
<path d="M1.33333 9.33335C2.06971 9.33335 2.66667 8.7364 2.66667 8.00002C2.66667 7.26364 2.06971 6.66669 1.33333 6.66669C0.596954 6.66669 0 7.26364 0 8.00002C0 8.7364 0.596954 9.33335 1.33333 9.33335Z" fill="#007AFF"/>
<path d="M1.33333 14C2.06971 14 2.66667 13.403 2.66667 12.6666C2.66667 11.9303 2.06971 11.3333 1.33333 11.3333C0.596954 11.3333 0 11.9303 0 12.6666C0 13.403 0.596954 14 1.33333 14Z" fill="#007AFF"/>
</svg>
