<svg width="20" height="20" viewBox="0 0 20 20" fill="none" xmlns="http://www.w3.org/2000/svg">
<path d="M15.8333 1.66667V0H14.1667V1.66667H12.5V0H10.8333V1.66667H9.16667V0H7.5V1.66667H5.83333V0H4.16667V1.66667H2.5V17.5C2.5 18.163 2.76339 18.7989 3.23223 19.2678C3.70107 19.7366 4.33696 20 5 20H15C15.663 20 16.2989 19.7366 16.7678 19.2678C17.2366 18.7989 17.5 18.163 17.5 17.5V1.66667H15.8333ZM15.8333 17.5C15.8333 17.721 15.7455 17.933 15.5893 18.0893C15.433 18.2455 15.221 18.3333 15 18.3333H5C4.77899 18.3333 4.56702 18.2455 4.41074 18.0893C4.25446 17.933 4.16667 17.721 4.16667 17.5V3.33333H15.8333V17.5ZM14.1667 7.5H5.83333V5.83333H14.1667V7.5ZM14.1667 10.8333H5.83333V9.16667H14.1667V10.8333ZM10.8333 14.1667H5.83333V12.5H10.8333V14.1667Z" fill="#007AFF"/>
</svg>
