<svg width="24" height="25" viewBox="0 0 24 25" fill="none" xmlns="http://www.w3.org/2000/svg">
<g id="ic_russia">
<circle id="Oval" cx="11.9924" cy="12.9846" r="11.9914" fill="white"/>
<path id="Path" d="M23.2983 8.98584H15.9097C16.2306 11.5475 16.2325 14.3701 15.9159 16.935H23.314C23.7459 15.6976 23.9833 14.3688 23.9833 12.9843C23.9835 11.5816 23.7406 10.2365 23.2983 8.98584Z" fill="#3757A6"/>
<path id="Path_2" d="M15.91 8.98586H23.2985C23.2974 8.98206 23.2962 8.97887 23.2947 8.97543C21.76 4.64798 17.8121 1.46414 13.0688 1.0415C14.9046 2.04768 15.4408 5.23553 15.91 8.98586Z" fill="#EFEFEF"/>
<path id="Path_3" d="M13.0688 24.9264C17.8206 24.503 21.774 21.3082 23.3028 16.9691C23.3068 16.9576 23.3102 16.9462 23.3143 16.9351H15.916C15.4504 20.7057 14.9119 23.916 13.0688 24.9264Z" fill="#E73B36"/>
<path id="Path_4" d="M0 12.9843C0 14.369 0.237823 15.6976 0.669316 16.935H16.5333C16.8502 14.3699 16.8479 11.5475 16.5274 8.98584H0.685266C0.242937 10.2365 0 11.5816 0 12.9843Z" fill="#3757A6"/>
<path id="Path_5" d="M0.688856 8.97533C0.687742 8.97872 0.686578 8.98196 0.685059 8.98576H16.5272C16.0577 5.23538 14.9041 2.04758 13.0687 1.0414C12.7136 1.00996 12.3546 0.992188 11.9915 0.992188C6.77483 0.992137 2.33863 4.32383 0.688856 8.97533Z" fill="#EFEFEF"/>
<path id="Path_6" d="M16.5334 16.9351H0.669434C0.673434 16.9462 0.67718 16.9576 0.680978 16.9691C2.32417 21.6325 6.76675 24.976 11.9918 24.976C12.355 24.976 12.7139 24.9582 13.0689 24.9264C14.9122 23.9161 16.0678 20.7057 16.5334 16.9351Z" fill="#E73B36"/>
</g>
</svg>
