<svg width="24" height="25" viewBox="0 0 24 25" fill="none" xmlns="http://www.w3.org/2000/svg">
<g id="ic_uzbekistan">
<path id="Path" d="M0.566625 9.33182C0.199031 10.4834 -4.68667e-05 11.7103 8.276e-09 12.9839C-4.68667e-05 14.2574 0.199078 15.4844 0.566672 16.636L12 17.1578L23.4333 16.6361C23.8009 15.4844 24 14.2574 24 12.9839C24 11.7104 23.8009 10.4834 23.4333 9.33178L12 8.81006L0.566625 9.33182Z" fill="#F0F0F0"/>
<g id="Group">
<path id="Path_2" d="M23.4332 9.33178L11.9999 8.81006L0.5665 9.33178C0.457563 9.67321 0.363766 10.0214 0.285156 10.3753H23.7144C23.6359 10.0213 23.5421 9.67312 23.4332 9.33178Z" fill="#D80027"/>
<path id="Path_3" d="M0.285156 15.5928C0.363672 15.9467 0.457469 16.2948 0.566406 16.6362L0.567531 16.6363L11.9997 17.158L23.433 16.6363C23.542 16.2948 23.6357 15.9467 23.7143 15.5928H0.285156V15.5928Z" fill="#D80027"/>
</g>
<path id="Path_4" d="M12.0002 24.9841C17.354 24.9841 21.8883 21.4777 23.4335 16.6362H0.566895C2.11213 21.4776 6.64644 24.9841 12.0002 24.9841Z" fill="#6DA544"/>
<path id="Path_5" d="M11.9997 0.983887C6.64595 0.983934 2.11173 4.49032 0.566406 9.33171L23.433 9.33176C21.8879 4.49028 17.3536 0.98384 11.9997 0.983887Z" fill="#338AF3"/>
<g id="Group_2">
<path id="Path_6" d="M5.48376 5.94055C5.48376 4.81663 6.27365 3.87773 7.32848 3.64738C7.16638 3.61195 6.99815 3.59277 6.82537 3.59277C5.52871 3.59277 4.47754 4.6439 4.47754 5.9406C4.47754 7.2373 5.52862 8.28843 6.82537 8.28843C6.99815 8.28843 7.16634 8.26921 7.32848 8.23382C6.2737 8.00338 5.48376 7.06448 5.48376 5.94055Z" fill="#F0F0F0"/>
<path id="Path_7" d="M8.71628 7.00781L8.87519 7.49695H9.3895L8.97344 7.7993L9.13234 8.28844L8.71628 7.98614L8.30013 8.28844L8.45908 7.7993L8.04297 7.49695H8.55728L8.71628 7.00781Z" fill="#F0F0F0"/>
<path id="Path_8" d="M10.3578 7.00781L10.5167 7.49695H11.0311L10.6149 7.7993L10.7739 8.28844L10.3578 7.98614L9.94168 8.28844L10.1006 7.7993L9.68457 7.49695H10.1988L10.3578 7.00781Z" fill="#F0F0F0"/>
<path id="Path_9" d="M11.9995 7.00781L12.1584 7.49695H12.6727L12.2566 7.7993L12.4155 8.28844L11.9995 7.98614L11.5833 8.28844L11.7423 7.7993L11.3262 7.49695H11.8405L11.9995 7.00781Z" fill="#F0F0F0"/>
<path id="Path_10" d="M13.6411 7.00781L13.8 7.49695H14.3143L13.8982 7.7993L14.0572 8.28844L13.6411 7.98614L13.2249 8.28844L13.3839 7.7993L12.9678 7.49695H13.4821L13.6411 7.00781Z" fill="#F0F0F0"/>
<path id="Path_11" d="M15.2826 7.00781L15.4415 7.49695H15.9559L15.5398 7.7993L15.6988 8.28844L15.2826 7.98614L14.8665 8.28844L15.0254 7.7993L14.6094 7.49695H15.1236L15.2826 7.00781Z" fill="#F0F0F0"/>
<path id="Path_12" d="M10.3578 5.30029L10.5167 5.78939H11.0311L10.6149 6.09178L10.7739 6.58087L10.3578 6.27857L9.94168 6.58087L10.1006 6.09178L9.68457 5.78939H10.1988L10.3578 5.30029Z" fill="#F0F0F0"/>
<path id="Path_13" d="M11.9995 5.30029L12.1584 5.78939H12.6727L12.2566 6.09178L12.4155 6.58087L11.9995 6.27857L11.5833 6.58087L11.7423 6.09178L11.3262 5.78939H11.8405L11.9995 5.30029Z" fill="#F0F0F0"/>
<path id="Path_14" d="M13.6411 5.30029L13.8 5.78939H14.3143L13.8982 6.09178L14.0572 6.58087L13.6411 6.27857L13.2249 6.58087L13.3839 6.09178L12.9678 5.78939H13.4821L13.6411 5.30029Z" fill="#F0F0F0"/>
<path id="Path_15" d="M15.2826 5.30029L15.4415 5.78939H15.9559L15.5398 6.09178L15.6988 6.58087L15.2826 6.27857L14.8665 6.58087L15.0254 6.09178L14.6094 5.78939H15.1236L15.2826 5.30029Z" fill="#F0F0F0"/>
<path id="Path_16" d="M11.9995 3.59277L12.1584 4.08196H12.6727L12.2566 4.38426L12.4155 4.87345L11.9995 4.57115L11.5833 4.87345L11.7423 4.38426L11.3262 4.08196H11.8405L11.9995 3.59277Z" fill="#F0F0F0"/>
<path id="Path_17" d="M13.6411 3.59277L13.8 4.08196H14.3143L13.8982 4.38426L14.0572 4.87345L13.6411 4.57115L13.2249 4.87345L13.3839 4.38426L12.9678 4.08196H13.4821L13.6411 3.59277Z" fill="#F0F0F0"/>
<path id="Path_18" d="M15.2826 3.59277L15.4415 4.08196H15.9559L15.5398 4.38426L15.6988 4.87345L15.2826 4.57115L14.8665 4.87345L15.0254 4.38426L14.6094 4.08196H15.1236L15.2826 3.59277Z" fill="#F0F0F0"/>
</g>
</g>
</svg>
